/* XPM */
static const char *aureus32[] = {
/* columns rows colors chars-per-pixel */
"32 32 160 2 ",
"   c #0F141D",
".  c #11151C",
"X  c #15181E",
"o  c #18191D",
"O  c #151B22",
"+  c #191D25",
"@  c #1A1E28",
"#  c #1C2126",
"$  c #1D2129",
"%  c #232224",
"&  c #2B2522",
"*  c #22262B",
"=  c #272A2A",
"-  c #2E2E2B",
";  c #322A23",
":  c #3A2C21",
">  c #342D28",
",  c #3B3025",
"<  c #34332D",
"1  c #3E3529",
"2  c #3E3A2F",
"3  c #2C2F31",
"4  c #2C3032",
"5  c #343635",
"6  c #3C3730",
"7  c #413123",
"8  c #4F3322",
"9  c #483629",
"0  c #453D2F",
"q  c #5A3D2B",
"w  c #423F31",
"e  c #633E26",
"r  c #464536",
"t  c #494333",
"y  c #4C4A39",
"u  c #634126",
"i  c #694426",
"p  c #65462E",
"a  c #6E452C",
"s  c #6E492D",
"d  c #70472D",
"f  c #70492C",
"g  c #7D522C",
"h  c #7F5D2E",
"j  c #665737",
"k  c #6B5B39",
"l  c #5B5742",
"z  c #5C5A42",
"x  c #605C42",
"c  c #605E4C",
"v  c #686243",
"b  c #6E674F",
"n  c #766540",
"m  c #716945",
"M  c #7F6E45",
"N  c #7C6F49",
"B  c #6E6A54",
"V  c #7F7A5E",
"C  c #954F2C",
"Z  c #9C4B28",
"A  c #8A532F",
"S  c #95542E",
"D  c #825332",
"F  c #8C5B33",
"G  c #8C5936",
"H  c #925D31",
"J  c #B55E2D",
"K  c #836C3D",
"L  c #93643F",
"P  c #B5602F",
"I  c #BB6B34",
"U  c #B57037",
"Y  c #BB7336",
"T  c #856F41",
"R  c #936440",
"E  c #88774C",
"W  c #A77043",
"Q  c #AF7747",
"!  c #A87B55",
"~  c #9C8550",
"^  c #BD9147",
"/  c #AE825C",
"(  c #AF9559",
")  c #A79C6B",
"_  c #BC916C",
"`  c #B3A369",
"'  c #C69647",
"]  c #C29548",
"[  c #C48659",
"{  c #C29872",
"}  c #CAAB73",
"|  c #DFAF7B",
" . c #CEB078",
".. c #E1B178",
"X. c #EBC46D",
"o. c #DDAA83",
"O. c #C3B981",
"+. c #CDBE87",
"@. c #DCBC9D",
"#. c #EABF84",
"$. c #E4BB95",
"%. c #E5BA99",
"&. c #D6C587",
"*. c #D1C58A",
"=. c #D5CB8D",
"-. c #DDCB89",
";. c #DECE97",
":. c #DBD090",
">. c #EEC886",
",. c #E3D18B",
"<. c #E2C599",
"1. c #E5CA9E",
"2. c #EBC89F",
"3. c #EAD595",
"4. c #F1DD92",
"5. c #F7E497",
"6. c #DFC1A3",
"7. c #E8C5A4",
"8. c #E6CDA3",
"9. c #EBC9A7",
"0. c #EFDDA3",
"q. c #E7D0AC",
"w. c #F1DFA3",
"e. c #F2DFAF",
"r. c #EDD8B4",
"t. c #E9D6B9",
"y. c #EAD8BB",
"u. c #EFE7AD",
"i. c #F1E7AF",
"p. c #FFF3A6",
"a. c #F5E5B4",
"s. c #F6E7BC",
"d. c #F7E9BF",
"f. c #EADDCB",
"g. c #F1D7C0",
"h. c #F5E8C1",
"j. c #F8ECCA",
"k. c #FAF0CA",
"l. c #EEE3D4",
"z. c #EDE5DA",
"x. c #EEE8DF",
"c. c #F2E6D6",
"v. c #F6EDD2",
"b. c #F4EBDB",
"n. c #FCF3D5",
"m. c #FBF5DD",
"M. c #FEF9DC",
"N. c #F4EEE4",
"B. c #F7F2E4",
"V. c #FAF5E2",
"C. c #F6F3EB",
"Z. c #F9F5EC",
"A. c #FDFBEC",
"S. c #F5F6F5",
"D. c #F8F7F2",
"F. c #F7F8F7",
"G. c #FBF9F4",
"H. c #F7F8F8",
"J. c #F8F8F8",
"K. c #F8F9F9",
/* pixels */
"K.S.K.S.K.S.K.S.K.S.K.S.K.K.S.K.S.K.S.K.S.K.S.K.S.K.S.K.S.K.S.K.",
"S.K.S.K.S.K.S.K.S.K.S.K.K.S.K.S.K.S.K.S.K.S.K.S.K.S.K.S.K.S.H.S.",
"K.S.H.S.H.S.H.S.H.S.F.S.K.K.S.K.S.K.S.K.S.H.S.H.S.F.S.F.S.H.S.K.",
"S.H.S.H.S.K.S.H.S.H.S.K.K.S.K.S.K.S.K.S.F.S.F.S.F.S.S.S.H.S.H.S.",
"K.S.S.S.H.S.H.S.K.S.K.K.K.K.Z.A.A.G.S.K.S.H.S.K.S.F.S.H.S.S.S.K.",
"S.F.S.F.S.H.S.K.S.K.S.G.M.a.;.+.+.;.a.n.G.S.K.S.H.S.H.S.F.S.H.S.",
"K.S.F.S.H.S.H.S.K.S.A.i.) l < = = < l ) u.A.S.K.S.F.S.H.S.F.S.K.",
"S.F.S.F.S.H.S.H.S.M.:.x # + * 3 4 * + # z =.M.S.H.S.H.S.F.S.H.S.",
"K.S.S.S.K.S.K.S.V.-.y O $ $ B *.*.V $ $ O r &.V.S.H.S.S.S.H.S.K.",
"S.F.S.S.S.K.S.G.w.v O # $ 3 O.p.p.=.5 $ # O x 0.G.S.F.S.H.S.F.S.",
"K.S.S.S.F.S.K.n.` % + $ @ l 4.,.-.5.b @ @ + # ` n.K.S.S.S.S.S.K.",
"S.F.S.H.S.H.S.a.m O + # $ ~ X.E N X.( * + + O v a.S.S.S.S.S.H.S.",
"H.S.S.S.S.S.K.3.t O + @ 6 ^ ] 2 < ^ ' t O + O w 3.G.S.S.S.S.S.K.",
"S.S.S.S.S.S.Z. .< O + 0 j K M c c N T k 0 # O > } Z.F.S.F.S.F.S.",
"S.S.S.S.S.S.D./ & O - n D D G L R G D g 1 + O & ! Z.S.S.S.S.S.S.",
"S.S.S.S.S.S.K.{ : O + q Z C d d d a C Z q + O : _ K.S.S.S.S.S.S.",
"S.S.S.S.S.S.K.6.i O % A J s O O O O p P S & X u @.K.S.S.S.S.S.S.",
"S.S.S.S.S.S.K.b.Q & 9 I Y , O + + + > U I q % W c.K.S.S.S.S.S.S.",
"S.S.S.S.S.S.S.K.2.F ; 7 , + + + + + + : 7 ; g $.K.S.S.S.S.S.S.S.",
"F.S.S.S.S.S.S.S.G.>.h o   o O O O O o   o f ..Z.S.S.S.S.S.S.S.S.",
"S.S.S.S.S.S.S.S.S.A.#.H : o . . . . o : A | Z.S.S.S.S.S.S.S.S.S.",
"H.S.F.S.H.S.H.S.S.S.D.9.[ F e 8 8 e G [ 7.Z.S.S.S.F.S.S.S.S.S.S.",
"S.H.S.H.S.H.S.K.S.F.S.K.N.g.$.o.o.%.g.N.K.S.F.S.H.S.H.S.F.S.S.S.",
"K.S.K.S.K.S.H.S.H.S.D.S.K.H.K.H.K.K.K.K.S.H.S.H.S.H.S.H.S.F.S.H.",
"S.K.S.H.S.H.S.H.S.m.k.D.C.D.C.B.C.V.G.G.K.C.B.C.H.S.F.S.S.S.S.S.",
"K.S.H.S.F.S.H.S.C.a.a.v.v.v.d.h.a.a.s.j.b.s.e.b.S.K.S.F.S.F.S.K.",
"S.H.S.K.S.H.S.S.q.r.8.8.1.8.q.c.1.1.y.<.8.y.1.t.K.S.K.S.H.S.H.S.",
"K.S.H.S.H.S.H.S.b.S.C.z.f.z.N.C.N.f.C.f.l.x.f.C.S.K.S.K.S.K.S.K.",
"S.K.S.K.S.K.S.K.S.K.S.K.S.K.S.K.S.K.S.K.S.K.F.K.K.S.K.S.K.S.K.S.",
"K.S.K.S.K.S.K.S.K.S.K.S.K.S.K.S.K.S.K.S.K.S.K.K.S.K.S.K.S.K.S.K.",
"S.K.S.K.S.K.S.K.S.K.S.K.S.K.S.K.S.K.S.K.S.K.S.K.K.S.K.S.K.S.K.S.",
"K.S.K.S.K.S.K.S.K.S.K.S.K.S.K.S.K.S.K.S.K.S.K.K.S.K.S.K.S.K.S.K."
};
